<svg width="70" height="36" viewBox="0 0 70 36" fill="none" xmlns="http://www.w3.org/2000/svg">
<path d="M8.07792 15.2597C7.66234 14.8701 7.24675 14.5844 6.85714 14.3766C6.46753 14.1948 6.02597 14.0909 5.53247 14.0909C4.96104 14.0909 4.54545 14.2208 4.25974 14.4545C3.97403 14.6883 3.81818 15.0779 3.81818 15.5974C3.81818 15.961 3.97403 16.2987 4.28571 16.5325C4.5974 16.7922 4.96104 17.026 5.42857 17.2597C5.8961 17.4935 6.38961 17.7273 6.90909 17.987C7.42857 18.2468 7.92208 18.5325 8.38961 18.8961C8.85714 19.2597 9.22078 19.6753 9.53247 20.1948C9.84416 20.7143 10 21.3377 10 22.0649C10 23.1818 9.68831 24.1429 9.09091 24.9481C8.49351 25.7532 7.55844 26.2727 6.36364 26.5584V29H4.1039V26.6623C3.42857 26.5844 2.7013 26.4026 1.94805 26.0909C1.19481 25.7792 0.545455 25.3896 0 24.8961L1.50649 22.5844C2.1039 23.026 2.67532 23.3636 3.19481 23.5974C3.74026 23.8312 4.28571 23.9351 4.83117 23.9351C5.48052 23.9351 5.97403 23.8052 6.25974 23.5455C6.57143 23.2857 6.72727 22.8701 6.72727 22.3247C6.72727 21.9091 6.57143 21.5714 6.25974 21.2857C5.94805 21 5.58442 20.7403 5.11688 20.4805C4.64935 20.2208 4.15584 19.961 3.63636 19.7013C3.11688 19.4416 2.62338 19.1299 2.15584 18.7662C1.68831 18.4026 1.32468 17.987 1.01299 17.4935C0.701299 17 0.545455 16.4286 0.545455 15.7273C0.545455 14.5844 0.857143 13.6234 1.48052 12.8701C2.1039 12.1169 2.98701 11.6234 4.07792 11.4156V9H6.33766V11.3636C7.09091 11.4675 7.74026 11.7013 8.31169 12.039C8.88312 12.3766 9.37662 12.7922 9.84416 13.2857L8.07792 15.2597Z" fill="#333B41"/>
<path d="M14.209 17.834L15.2119 8.51562H25.1396V11.1816H17.7764L17.2686 15.5996C18.1234 15.1087 19.0882 14.8633 20.1631 14.8633C21.9235 14.8633 23.2904 15.4261 24.2637 16.5518C25.2454 17.6774 25.7363 19.1924 25.7363 21.0967C25.7363 22.9756 25.1947 24.4736 24.1113 25.5908C23.028 26.6995 21.5426 27.2539 19.6553 27.2539C17.9626 27.2539 16.5576 26.7757 15.4404 25.8193C14.3317 24.8545 13.7308 23.585 13.6377 22.0107H16.6211C16.7396 22.9079 17.0612 23.5977 17.5859 24.0801C18.1107 24.554 18.7962 24.791 19.6426 24.791C20.5905 24.791 21.3268 24.4525 21.8516 23.7754C22.3848 23.0983 22.6514 22.1758 22.6514 21.0078C22.6514 19.8822 22.3594 18.9935 21.7754 18.3418C21.1914 17.6816 20.3874 17.3516 19.3633 17.3516C18.8047 17.3516 18.3307 17.4277 17.9414 17.5801C17.5521 17.724 17.1289 18.0117 16.6719 18.4434L14.209 17.834ZM40.209 19.2178C40.209 21.8753 39.7096 23.8812 38.7109 25.2354C37.7207 26.5811 36.21 27.2539 34.1787 27.2539C32.1813 27.2539 30.6748 26.598 29.6592 25.2861C28.652 23.9658 28.1357 22.015 28.1104 19.4336V16.2344C28.1104 13.5768 28.6055 11.5837 29.5957 10.2549C30.5944 8.92611 32.1136 8.26172 34.1533 8.26172C36.1761 8.26172 37.6826 8.90918 38.6729 10.2041C39.6715 11.499 40.1836 13.4372 40.209 16.0186V19.2178ZM37.124 15.7646C37.124 14.0296 36.887 12.7601 36.4131 11.9561C35.9391 11.1436 35.1859 10.7373 34.1533 10.7373C33.1462 10.7373 32.4056 11.1224 31.9316 11.8926C31.4577 12.6543 31.208 13.8477 31.1826 15.4727V19.6621C31.1826 21.3887 31.4238 22.6751 31.9062 23.5215C32.3887 24.3678 33.1462 24.791 34.1787 24.791C35.1689 24.791 35.901 24.4017 36.375 23.623C36.849 22.8359 37.0986 21.6087 37.124 19.9414V15.7646ZM54.9863 19.2178C54.9863 21.8753 54.487 23.8812 53.4883 25.2354C52.498 26.5811 50.9873 27.2539 48.9561 27.2539C46.9587 27.2539 45.4521 26.598 44.4365 25.2861C43.4294 23.9658 42.9131 22.015 42.8877 19.4336V16.2344C42.8877 13.5768 43.3828 11.5837 44.373 10.2549C45.3717 8.92611 46.891 8.26172 48.9307 8.26172C50.9535 8.26172 52.46 8.90918 53.4502 10.2041C54.4489 11.499 54.9609 13.4372 54.9863 16.0186V19.2178ZM51.9014 15.7646C51.9014 14.0296 51.6644 12.7601 51.1904 11.9561C50.7165 11.1436 49.9632 10.7373 48.9307 10.7373C47.9235 10.7373 47.1829 11.1224 46.709 11.8926C46.235 12.6543 45.9854 13.8477 45.96 15.4727V19.6621C45.96 21.3887 46.2012 22.6751 46.6836 23.5215C47.166 24.3678 47.9235 24.791 48.9561 24.791C49.9463 24.791 50.6784 24.4017 51.1523 23.623C51.6263 22.8359 51.876 21.6087 51.9014 19.9414V15.7646ZM69.7637 19.2178C69.7637 21.8753 69.2643 23.8812 68.2656 25.2354C67.2754 26.5811 65.7646 27.2539 63.7334 27.2539C61.736 27.2539 60.2295 26.598 59.2139 25.2861C58.2067 23.9658 57.6904 22.015 57.665 19.4336V16.2344C57.665 13.5768 58.1602 11.5837 59.1504 10.2549C60.1491 8.92611 61.6683 8.26172 63.708 8.26172C65.7308 8.26172 67.2373 8.90918 68.2275 10.2041C69.2262 11.499 69.7383 13.4372 69.7637 16.0186V19.2178ZM66.6787 15.7646C66.6787 14.0296 66.4417 12.7601 65.9678 11.9561C65.4938 11.1436 64.7406 10.7373 63.708 10.7373C62.7008 10.7373 61.9603 11.1224 61.4863 11.8926C61.0124 12.6543 60.7627 13.8477 60.7373 15.4727V19.6621C60.7373 21.3887 60.9785 22.6751 61.4609 23.5215C61.9434 24.3678 62.7008 24.791 63.7334 24.791C64.7236 24.791 65.4557 24.4017 65.9297 23.623C66.4036 22.8359 66.6533 21.6087 66.6787 19.9414V15.7646Z" fill="#333B41"/>
</svg>
