<svg width="26" height="24" viewBox="0 0 26 24" fill="none" xmlns="http://www.w3.org/2000/svg">
<path d="M22.1264 6.01354L22.1294 6.00265L22.1292 5.99135L22.0545 1.27006L22.0544 1.26227L22.0527 1.25466C22.0149 1.08148 22.0982 0.914255 22.282 0.7787C22.4659 0.64307 22.74 0.549129 23.0458 0.531229C23.6496 0.495886 24.3538 0.757086 24.6969 1.53947C24.55 2.22226 24.4666 2.89554 24.3837 3.56494L24.3835 3.56659C24.2994 4.24556 24.2157 4.92054 24.0672 5.60428L24.06 5.63718L24.0791 5.66494C25.9973 8.45912 26.2079 11.5047 25.2627 14.258C24.3168 17.0133 22.2123 19.4774 19.4991 21.0979C16.7864 22.7181 13.469 23.4927 10.0995 22.8744C6.7347 22.2569 3.31112 20.2492 0.381637 16.2938C0.273208 15.8398 0.22964 15.4612 0.253007 15.1595C0.276611 14.8547 0.367757 14.6357 0.521334 14.4932C0.674714 14.3509 0.90239 14.2737 1.22268 14.2776C1.54309 14.2815 1.94901 14.3667 2.44842 14.5414C10.6251 17.9369 19.6831 14.7666 22.1264 6.01354Z" fill="#FFEE2E" stroke="#468E0D" stroke-width="0.155869"/>
</svg>
